<?xml version="1.0" encoding="UTF-8"?>
<!DOCTYPE svg PUBLIC "-//W3C//DTD SVG 1.1//EN" "http://www.w3.org/Graphics/SVG/1.1/DTD/svg11.dtd">
<!-- Creator: CorelDRAW 2018 (64 Bit) -->
<svg xmlns="http://www.w3.org/2000/svg" xml:space="preserve" width="10.1602mm" height="1.9472mm" version="1.1" style="shape-rendering:geometricPrecision; text-rendering:geometricPrecision; image-rendering:optimizeQuality; fill-rule:evenodd; clip-rule:evenodd"
viewBox="0 0 2.72 0.52"
 xmlns:xlink="http://www.w3.org/1999/xlink">
 <defs>
  <style type="text/css">
   <![CDATA[
    .fil0 {fill:white}
   ]]>
  </style>
 </defs>
 <g id="Capa_x0020_1">
  <metadata id="CorelCorpID_0Corel-Layer"/>
  <g id="_1546749720208">
   <path id="svg_2" class="fil0" d="M0.89 0.15c0.01,-0.01 0.02,-0.01 0.03,-0.02 0.02,-0.01 0.05,-0.02 0.08,-0.02 0.02,0 0.04,0.01 0.05,0.02 0.01,0.01 0.02,0.03 0.02,0.05 0,0 0,0.01 0,0.01l0 0.19c0,0.02 -0,0.02 -0.02,0.02l-0.04 0c-0,0 -0.01,0 -0.01,-0 -0,-0 -0.01,-0 -0.01,-0.01 -0,-0 -0,-0.01 -0,-0.01l0 -0.17c0,-0.01 -0,-0.01 -0,-0.02 -0,-0.01 -0.01,-0.02 -0.02,-0.02 -0.02,-0 -0.04,0 -0.06,0.01 -0,0 -0,0 -0,0.01l0 0.19c0,0 0,0.01 -0,0.01 0,0 -0,0.01 -0.01,0.01 -0.01,0 -0.01,0 -0.02,0l-0.04 0c-0.01,0 -0.02,-0 -0.02,-0.02l0 -0.17c0,-0.01 -0,-0.01 -0,-0.02 -0,-0.01 -0.01,-0.02 -0.02,-0.02 -0.02,-0 -0.04,0 -0.06,0.01 -0,0 -0,0 -0,0.01l0 0.19c0,0.01 -0,0.02 -0.02,0.02l-0.05 0c-0.01,0 -0.01,-0 -0.01,-0.02l0 -0.25c0,-0 0,-0.01 0,-0.01 0,-0 0.01,-0.01 0.01,-0.01l0.04 0c0.01,0 0.01,0 0.01,0.01 0,0 0,0.01 0,0.02 0,0 0.01,-0 0.01,-0 0.02,-0.01 0.04,-0.02 0.06,-0.03 0.02,-0 0.03,-0 0.05,0 0.02,0 0.03,0.01 0.04,0.03 0,0 0,0 0,0 -0,0 0,0 0,0l0 0 -0 -0 0 -0z"/>
   <path id="svg_3" class="fil0" d="M1.59 0.33c0,-0.01 0,-0.01 0.01,-0.02 0.02,-0.06 0.03,-0.11 0.05,-0.17l0 -0.01c0,-0.01 0.01,-0.01 0.01,-0.01l0.05 0c0.01,0 0.02,0 0.01,0.02l-0.02 0.06c-0.02,0.06 -0.05,0.12 -0.07,0.19 -0,0 -0,0 -0,0.01 -0,0.01 -0.01,0.01 -0.02,0.01 -0.01,-0 -0.03,-0 -0.04,0 -0.01,0 -0.02,-0 -0.02,-0.01 -0.01,-0.02 -0.02,-0.05 -0.03,-0.07 -0.02,-0.06 -0.04,-0.11 -0.06,-0.17 -0,-0 -0,-0.01 -0,-0.01 -0,-0.01 0,-0.01 0.01,-0.01 0.02,-0 0.04,0 0.06,0 0.01,0 0.01,0.01 0.01,0.01 0,0.01 0.01,0.03 0.01,0.04 0.01,0.05 0.03,0.1 0.04,0.15 -0,0 0,0 0,0l0 0 0 0 -0 0z"/>
   <path id="svg_4" class="fil0" d="M0.38 0.17c0,-0 0,-0 0.01,-0 0.01,-0.01 0.01,-0.01 0.02,-0.02 0.02,-0.01 0.04,-0.02 0.06,-0.02 0.01,0 0.01,0 0.01,0.01 0,0.01 0,0.02 0,0.04 0,0 0,0.01 -0,0.01 -0,0.01 -0,0.01 -0.01,0.01 -0,0 -0.01,0 -0.01,-0 -0.02,-0 -0.04,0 -0.07,0.01 -0,0 -0,0.01 -0,0.01l0 0.17c0,0 0,0.01 -0,0.01 -0,0 -0,0.01 -0.01,0.01 -0,0 -0.01,0 -0.01,0l-0.04 0c-0,0 -0.01,0 -0.01,-0 -0,-0 -0.01,-0 -0.01,-0.01 -0,-0 -0,-0.01 -0,-0.01l0 -0.24c0,-0.02 0,-0.02 0.02,-0.02l0.03 0c0.01,0 0.01,0 0.02,0.01 0,0.01 0,0.02 0.01,0.03l0 0 -0 0 0 0z"/>
   <path id="svg_5" class="fil0" d="M1.83 0.27l0 0.13c-0,0.01 -0,0.01 -0.01,0.01 -0.02,0 -0.04,0 -0.05,0 -0.01,0 -0.01,-0 -0.01,-0.01 -0,-0 -0,-0 -0,-0.01l0 -0.25c0,-0.01 0,-0.01 0.01,-0.01l0.05 0c0.01,0 0.01,0 0.01,0.01l0 0.13 0 0 0 0 -0 0z"/>
   <path id="svg_6" class="fil0" d="M0.51 0.27l0 -0.13c0,-0.01 0,-0.01 0.01,-0.01 0.02,-0 0.04,-0 0.05,0 0.01,0 0.01,0 0.01,0.01 0,0 0,0.01 0,0.01l0 0.24c0,0 -0,0.01 -0,0.01 -0,0 -0,0.01 -0.01,0.01 -0,0 -0,0 -0.01,0l-0.05 0c-0,0 -0,0 -0,-0 -0,-0 -0.01,-0 -0.01,-0.01 -0,-0 -0,-0.01 -0,-0.01 0,-0.04 0,-0.08 0,-0.12l0 0 0 0 0 0zm0.04 -0.27c0.01,-0 0.01,0 0.02,0 0.02,0.01 0.03,0.02 0.03,0.05 -0,0.02 -0.01,0.03 -0.03,0.04 -0.01,0 -0.02,0 -0.02,0 -0.02,-0 -0.03,-0.02 -0.03,-0.04 0,-0.03 0.02,-0.04 0.05,-0.04l0 0 0 0 0 0z"/>
   <path id="svg_7" class="fil0" d="M1.79 0c0.01,-0 0.01,0 0.02,0 0.01,0.01 0.02,0.02 0.02,0.03 0,0.03 -0.02,0.05 -0.05,0.05 -0,0 -0.01,-0 -0.01,-0 -0.02,-0.01 -0.03,-0.02 -0.03,-0.05 0,-0.02 0.02,-0.03 0.04,-0.04 0,-0 0,-0 0.01,-0l0 -0z"/>
   <path id="svg_8" class="fil0" d="M0.26 0.24c-0,-0.02 -0.01,-0.04 -0.01,-0.05 -0.01,-0.03 -0.04,-0.05 -0.07,-0.06 -0.04,-0.01 -0.07,0 -0.1,0.02 -0,0 -0,0 -0.01,0.01 -0,-0 -0,-0 -0,-0 -0,-0 -0,-0.01 -0,-0.01 -0,-0.01 -0.01,-0.01 -0.02,-0.01 -0.01,0 -0.02,0 -0.03,0 -0.01,-0 -0.01,0 -0.02,0.01 0,0.13 0,0.25 0,0.38 0,0.01 0.01,0.01 0.02,0.01 0.01,-0 0.02,0 0.04,0 0.02,0 0.02,0 0.02,-0.02l0 -0.1c0,-0 -0,-0.01 0,-0.01 0.02,0.01 0.04,0.02 0.06,0.02 0.03,0 0.06,-0 0.08,-0.03 0.02,-0.02 0.03,-0.04 0.04,-0.06 0.01,-0.03 0.01,-0.06 0.01,-0.09l0 0 0 0 0 0zm-0.08 0.07c-0,0.01 -0.01,0.02 -0.02,0.03 -0.01,0.01 -0.02,0.01 -0.03,0.01 -0.02,0 -0.03,-0 -0.05,-0.01 -0,-0 -0.01,-0.01 -0.01,-0.01l0 -0.06c0,-0.02 0,-0.04 0,-0.06 -0,-0.01 0,-0.01 0.01,-0.01 0.02,-0.01 0.04,-0.01 0.06,-0.01 0.01,0 0.03,0.01 0.03,0.03 0.01,0.01 0.01,0.02 0.01,0.04 0,0.02 0,0.05 -0,0.07l0 0 0 0 0 0z"/>
   <path id="svg_9" class="fil0" d="M2.72 0.29c0,-0 0,-0 0,0zm0 -0.05l0 0c-0,-0 -0,-0 -0,-0.01l0 -0c0,0 0,-0 0,-0l-0 0 0 -0 0 0c0,-0 -0,-0 -0,-0 -0,-0.01 -0,-0.01 -0,-0.02 -0.01,-0.05 -0.04,-0.08 -0.09,-0.09 -0.02,-0.01 -0.04,-0.01 -0.06,-0 -0.05,0.01 -0.08,0.03 -0.09,0.08 -0.02,0.04 -0.02,0.09 0,0.14 0.01,0.04 0.04,0.06 0.08,0.08 0.02,0.01 0.04,0.01 0.06,0 0.07,-0.01 0.1,-0.07 0.11,-0.12l-0 0 0 -0c-0,-0 -0,-0 0,-0.01l0 0c0,-0 0,-0 0,-0l0 -0.04c0,-0 -0,-0 -0,-0l0 0 0 0 -0 0zm-0.08 0.07c-0,0.01 -0.01,0.01 -0.01,0.02 -0.01,0.01 -0.02,0.02 -0.03,0.02 -0.01,0 -0.01,0 -0.02,-0 -0.01,-0 -0.03,-0.01 -0.03,-0.03 -0.01,-0.01 -0.01,-0.02 -0.01,-0.04 -0,-0.02 -0,-0.04 0,-0.06 0,-0.01 0.01,-0.02 0.01,-0.02 0.01,-0.01 0.02,-0.02 0.03,-0.02 0.01,-0 0.01,-0 0.02,0 0.01,0 0.02,0.01 0.03,0.03 0.01,0.01 0.01,0.03 0.01,0.04 0,0.01 0,0.01 0,0.02 0,0.02 -0,0.03 -0,0.05l0 0 0 0 0 0zm-0.51 -0.31l-0.05 0c-0.01,0 -0.02,0 -0.02,0.02l0 0.12c0,0 0,0 -0,0.01 -0,-0 -0,-0 -0.01,-0 -0.04,-0.02 -0.07,-0.03 -0.11,-0.01 -0.03,0.01 -0.04,0.04 -0.05,0.06 -0.01,0.03 -0.01,0.05 -0.01,0.08 0,0.03 0.01,0.05 0.02,0.08 0.01,0.03 0.03,0.05 0.06,0.05 0.04,0.01 0.07,0.01 0.1,-0.02 0,-0 0,-0 0.01,-0 0,0 0,0.01 0,0.01 0,0.01 0.01,0.01 0.01,0.01l0.01 0c0.01,0 0.02,0 0.04,0 0.01,0 0.01,-0 0.01,-0.01l0 -0.38c-0,-0.01 -0,-0.01 -0.01,-0.01l0 0 0 0 0 0zm-0.06 0.26l0 0.07c0,0 -0,0.01 -0.01,0.01 -0.02,0.01 -0.03,0.01 -0.05,0.01 -0.02,-0 -0.03,-0.01 -0.04,-0.03 -0.01,-0.01 -0.01,-0.02 -0.01,-0.04 -0,-0.02 -0,-0.05 0,-0.07 0,-0.01 0,-0.01 0.01,-0.02 0.01,-0.01 0.02,-0.02 0.04,-0.02 0.02,-0 0.04,0 0.05,0.01 0,0 0.01,0.01 0.01,0.01 -0,0.02 -0,0.04 -0,0.07l0 0 0 -0 0 0z"/>
   <path id="svg_10" class="fil0" d="M1.18 0.29c0.03,0 0.05,0.01 0.08,0 0.01,-0 0.03,-0.01 0.04,-0.01 0.02,-0.01 0.03,-0.02 0.03,-0.04 0.01,-0.05 -0.01,-0.09 -0.05,-0.11 -0.02,-0.01 -0.04,-0.01 -0.07,-0.01 -0.05,0.01 -0.09,0.04 -0.1,0.09 -0.01,0.04 -0.01,0.07 -0,0.11 0.01,0.05 0.04,0.08 0.09,0.09 0.03,0.01 0.05,0.01 0.08,0 0.01,-0 0.03,-0.01 0.04,-0.01 0.01,-0 0.01,-0.01 0.01,-0.02 -0,-0.01 0,-0.02 0,-0.03 0,-0.01 -0,-0.01 -0.01,-0.01 -0.01,0 -0.02,0 -0.03,0.01 -0.02,0 -0.04,0 -0.06,0 -0.03,-0.01 -0.05,-0.03 -0.05,-0.06 0,0 0.01,0 0.01,0l0 0 -0 0 -0 -0zm-0.01 -0.05c0,-0.01 0,-0.02 0.01,-0.02 0.01,-0.03 0.03,-0.04 0.05,-0.03 0.01,0 0.01,0 0.02,0 0.01,0 0.01,0.01 0.02,0.02 0,0.01 0,0.01 -0,0.02 -0,0.01 -0.01,0.02 -0.03,0.02 -0.01,0 -0.01,0 -0.02,0 -0.01,0 -0.03,-0 -0.04,-0 -0.01,-0 -0.01,-0 -0,-0.01l-0 0 0 0z"/>
   <path id="svg_11" class="fil0" d="M2.33 0.29c0.02,-0 0.04,-0.01 0.06,-0.02 0.02,-0.01 0.03,-0.03 0.03,-0.05 0,-0.01 0,-0.03 -0,-0.04 -0.01,-0.03 -0.03,-0.05 -0.06,-0.06 -0.02,-0.01 -0.03,-0.01 -0.05,-0.01 -0.06,0 -0.1,0.03 -0.12,0.09 -0.01,0.04 -0.01,0.08 0,0.12 0.01,0.04 0.04,0.07 0.08,0.08 0.02,0 0.03,0.01 0.05,0.01 0.02,-0 0.05,-0.01 0.07,-0.01 0.01,-0 0.01,-0.01 0.01,-0.02l0 -0.03c-0,-0.01 -0,-0.01 -0.01,-0.01 -0.01,0 -0.01,0 -0.02,0.01 -0.02,0.01 -0.05,0.01 -0.07,0 -0.02,-0 -0.04,-0.02 -0.04,-0.04 -0,-0.01 -0,-0.01 -0,-0.02 0,0 0,0 0,0 0.02,0 0.05,0.01 0.07,0l0 0 0 0 -0 0zm-0.07 -0.06c0,-0.01 0.01,-0.03 0.01,-0.04 0.01,-0.02 0.03,-0.02 0.05,-0.02 0,0 0,0 0,0 0.02,0 0.03,0.02 0.03,0.04 -0,0.01 -0.01,0.02 -0.03,0.02 -0.01,0 -0.01,0 -0.02,0 -0.01,-0 -0.03,-0 -0.04,-0 -0,-0 -0,-0 -0,-0.01l0 0 0 0 0 0z"/>
  </g>
 </g>
</svg>
